<svg width="140" height="31" viewBox="0 0 140 31" fill="none" xmlns="http://www.w3.org/2000/svg">
<path d="M36.8945 21.2413L38.8632 18.5209C39.6503 19.0649 40.4964 19.5118 41.3843 19.8527C42.1469 20.136 42.9509 20.2821 43.7614 20.285C44.4967 20.3196 45.2289 20.1655 45.8924 19.8365C46.416 19.5366 46.6778 19.1395 46.6778 18.6397C46.6828 18.455 46.6448 18.2717 46.5669 18.1053C46.489 17.9388 46.3735 17.7942 46.2301 17.6834C45.7993 17.3958 45.3067 17.2214 44.7955 17.1755L41.8974 16.7271C40.4087 16.4858 39.2742 15.9869 38.4941 15.2305C37.7139 14.4741 37.3256 13.4718 37.3291 12.2237C37.3097 11.5273 37.4553 10.8366 37.7532 10.2114C38.0511 9.58624 38.4923 9.04551 39.0386 8.63615C40.1783 7.73565 41.7046 7.28541 43.6174 7.28541C44.7075 7.28436 45.7918 7.45005 46.8348 7.77708C47.8908 8.11347 48.8955 8.60184 49.8193 9.22777L47.9056 11.859C47.154 11.3993 46.3572 11.0235 45.5285 10.7379C44.7893 10.4915 44.0173 10.3657 43.2404 10.3651C42.6388 10.3366 42.0414 10.4816 41.5152 10.7838C41.3198 10.8899 41.156 11.0487 41.0412 11.2433C40.9264 11.4379 40.8649 11.6609 40.8633 11.8887C40.8558 12.0796 40.8959 12.2693 40.9798 12.4396C41.0637 12.6098 41.1885 12.755 41.3424 12.8613C41.8238 13.1447 42.3604 13.3137 42.9132 13.3556L45.8112 13.8041C47.2808 14.0238 48.4152 14.5218 49.2145 15.298C49.6087 15.6762 49.9198 16.1371 50.1271 16.6496C50.3343 17.1622 50.4329 17.7145 50.4162 18.2696C50.4229 18.9791 50.2534 19.6785 49.924 20.3012C49.5768 20.9326 49.1082 21.4842 48.547 21.9221C47.9167 22.408 47.2075 22.7739 46.4526 23.0026C45.5966 23.2664 44.7071 23.3966 43.8137 23.389C42.5106 23.4024 41.2125 23.2204 39.9601 22.8487C38.8474 22.5218 37.8064 21.976 36.8945 21.2413Z" fill="#6071B3"/>
<path d="M66.0766 21.1521C64.3765 22.6534 62.198 23.4521 59.9611 23.3944C58.8639 23.4006 57.7762 23.1849 56.7594 22.7595C55.8021 22.3667 54.9267 21.788 54.1807 21.0549C53.4505 20.33 52.8691 19.4609 52.4712 18.4993C52.052 17.4936 51.8398 16.409 51.8481 15.3142C51.8409 14.2324 52.042 13.1599 52.4398 12.1589C52.8184 11.1996 53.3751 10.3259 54.0786 9.58708C54.7858 8.85024 55.6276 8.26535 56.5552 7.86623C57.5226 7.44901 58.5619 7.23855 59.6103 7.24759C60.6357 7.24176 61.6502 7.46477 62.5843 7.90135C63.4817 8.31448 64.29 8.90877 64.9614 9.64922C65.6474 10.4175 66.181 11.3169 66.5321 12.2967C66.9139 13.3635 67.1047 14.4931 67.095 15.6303V16.7109H55.8457C56.0975 17.6576 56.6508 18.4893 57.4165 19.072C58.2024 19.6691 59.1583 19.9798 60.1339 19.9554C60.7656 19.9601 61.3931 19.8495 61.9874 19.6285C62.5378 19.4305 63.0423 19.1168 63.4692 18.7073L66.0766 21.1521ZM59.5318 10.6163C58.6723 10.5956 57.8349 10.898 57.1756 11.4673C56.5014 12.0646 56.0254 12.8648 55.8143 13.7555H63.2047C62.9774 12.8764 62.4973 12.089 61.8277 11.497C61.1905 10.9247 60.3712 10.615 59.5265 10.6272L59.5318 10.6163Z" fill="#6071B3"/>
<path d="M73.4852 1.26648V23.0972H69.5242V2.16337L73.4852 1.26648Z" fill="#6071B3"/>
<path d="M75.5532 7.51501H78.9145V6.01028C78.9145 4.27592 79.4066 2.93959 80.3909 2.00127C81.3752 1.06296 82.7958 0.598301 84.6527 0.607306C85.0692 0.607553 85.4852 0.632809 85.8988 0.682948C86.2692 0.721925 86.6365 0.786911 86.9983 0.877455V4.31645C86.6318 4.2354 86.3072 4.17597 86.0297 4.13545C85.7363 4.09586 85.4408 4.076 85.1449 4.07601C84.391 4.07601 83.8255 4.24531 83.4486 4.58389C83.2512 4.77964 83.0982 5.01796 83.0004 5.28181C82.9027 5.54567 82.8626 5.82855 82.8831 6.11023V7.51501H86.9983V10.954H82.8831V23.1107H78.9145V10.954H75.5532V7.51501Z" fill="#6071B3"/>
<path d="M96.0409 19.8068C96.6955 19.8113 97.3433 19.6684 97.9389 19.3881C98.5818 19.0674 99.158 18.6205 99.6353 18.0724L102.02 20.6145C101.244 21.4937 100.296 22.1918 99.2374 22.6623C98.1788 23.1459 97.0337 23.3953 95.876 23.3944C94.8042 23.4002 93.7423 23.1843 92.7528 22.7595C91.8163 22.3675 90.9627 21.7913 90.2395 21.063C89.5255 20.3332 88.9587 19.4646 88.5719 18.5074C87.7622 16.4662 87.7622 14.1784 88.5719 12.1373C88.9582 11.1702 89.5277 10.2924 90.2469 9.55525C90.9662 8.81814 91.8208 8.23657 92.7606 7.84461C93.7481 7.42273 94.8072 7.20873 95.876 7.21517C97.0619 7.2133 98.2356 7.46343 99.3238 7.94997C100.394 8.41445 101.353 9.11312 102.135 9.9977L99.7008 12.6587C99.2108 12.0832 98.6213 11.6068 97.9625 11.2539C97.3414 10.9345 96.6562 10.7707 95.9623 10.7757C95.4187 10.7674 94.8799 10.8808 94.3828 11.1079C93.8856 11.335 93.4421 11.6705 93.0826 12.0913C92.2961 12.9724 91.8743 14.1357 91.9072 15.3331C91.891 15.9222 91.9892 16.5087 92.196 17.058C92.4028 17.6073 92.7141 18.1084 93.1114 18.5317C93.4866 18.9432 93.941 19.2693 94.4455 19.4889C94.95 19.7085 95.4934 19.8168 96.0409 19.8068Z" fill="#4EB58D"/>
<path d="M106.041 5.66179C105.744 5.66595 105.449 5.60694 105.175 5.48842C104.901 5.36991 104.653 5.19444 104.447 4.97291C104.232 4.7606 104.062 4.50497 103.948 4.22194C103.833 3.93891 103.775 3.63452 103.779 3.32771C103.776 3.02177 103.833 2.71837 103.948 2.4363C104.063 2.15422 104.233 1.8995 104.447 1.6879C104.655 1.4699 104.903 1.29677 105.177 1.1786C105.45 1.06043 105.744 0.999573 106.04 0.999573C106.337 0.999573 106.63 1.06043 106.904 1.1786C107.177 1.29677 107.425 1.4699 107.633 1.6879C107.848 1.89926 108.018 2.15389 108.133 2.43597C108.249 2.71805 108.307 3.02158 108.303 3.32771C108.307 3.63452 108.25 3.93891 108.135 4.22194C108.021 4.50497 107.851 4.7606 107.636 4.97291C107.43 5.19457 107.182 5.37013 106.908 5.48865C106.634 5.60717 106.339 5.66611 106.041 5.66179ZM108.042 7.51501V23.0972H104.07V7.51501H108.042Z" fill="#4EB58D"/>
<path d="M113.199 18.7073V10.954H110.096V7.51501H113.199V3.53843L117.167 2.61182V7.51501H121.458V10.954H117.167V17.8617C117.167 18.6019 117.322 19.1179 117.631 19.4178C117.939 19.7176 118.481 19.8662 119.254 19.8662C119.604 19.8675 119.954 19.8432 120.301 19.7933C120.664 19.736 121.022 19.6438 121.369 19.5177V22.8676C120.867 23.0249 120.354 23.1397 119.835 23.2106C119.326 23.2938 118.813 23.339 118.298 23.3457C116.617 23.3457 115.347 22.9522 114.487 22.1652C113.626 21.3781 113.197 20.2255 113.199 18.7073Z" fill="#4EB58D"/>
<path d="M127.804 23.8131L128.034 23.2458L122.152 7.51501H126.529L130.267 18.1319L134.556 7.51501H138.846L131.891 24.3237C131.117 26.1949 130.219 27.5303 129.194 28.33C128.17 29.1296 126.837 29.5285 125.197 29.5267C124.848 29.5267 124.513 29.5105 124.196 29.4808C123.936 29.4627 123.678 29.4174 123.427 29.3457V25.8176C123.628 25.8592 123.832 25.889 124.037 25.9067C124.249 25.9283 124.511 25.9364 124.822 25.9364C125.466 25.9574 126.1 25.7684 126.634 25.3961C127.159 24.9915 127.565 24.4431 127.804 23.8131Z" fill="#4EB58D"/>
<path d="M4.97686 18.5208C4.96989 16.9662 5.48102 15.4564 6.42458 14.2444L6.44291 14.2201L6.48479 14.1634C7.09507 13.3552 7.87599 12.7013 8.76812 12.2515C9.66025 11.8018 10.6401 11.568 11.633 11.568C12.6259 11.568 13.6057 11.8018 14.4978 12.2515C15.3899 12.7013 16.1709 13.3552 16.7811 14.1634L16.8832 14.2984H16.8963C17.758 15.444 18.2455 16.8419 18.2887 18.2913C18.332 19.7407 17.9288 21.167 17.1372 22.3651C18.3836 22.8877 19.5543 23.585 20.6164 24.4371C21.8209 22.4962 22.4043 20.2138 22.284 17.9123C22.1638 15.6109 21.346 13.4065 19.9462 11.6104L11.6343 0.6073L3.32495 11.624C1.92475 13.4197 1.10652 15.6239 0.985802 17.9254C0.86508 20.2269 1.44796 22.5094 2.65214 24.4506C3.71425 23.5985 4.88499 22.9012 6.13137 22.3786C5.37796 21.2424 4.97547 19.8975 4.97686 18.5208Z" fill="#6071B3"/>
<path d="M5.41968 27.4574C7.23158 28.8028 9.40738 29.5267 11.6396 29.5267C13.8718 29.5267 16.0476 28.8028 17.8595 27.4574C16.047 26.1135 13.8715 25.3906 11.6396 25.3906C9.40776 25.3906 7.2322 26.1135 5.41968 27.4574Z" fill="#4EB58D"/>
<path d="M11.6346 15.7681C11.1069 15.7681 10.5911 15.9295 10.1524 16.232C9.71372 16.5345 9.37179 16.9644 9.16987 17.4674C8.96795 17.9704 8.91512 18.5239 9.01806 19.0579C9.12099 19.5919 9.37507 20.0824 9.74817 20.4674C10.1213 20.8524 10.5966 21.1146 11.1141 21.2208C11.6316 21.327 12.168 21.2725 12.6555 21.0641C13.1429 20.8558 13.5596 20.503 13.8527 20.0503C14.1459 19.5976 14.3023 19.0653 14.3023 18.5209C14.3023 17.7908 14.0213 17.0906 13.5209 16.5743C13.0206 16.0581 12.3421 15.7681 11.6346 15.7681Z" fill="#4EB58D"/>
<path d="M11.6346 21.2737C11.1069 21.2737 10.5911 21.1122 10.1524 20.8098C9.71372 20.5073 9.37179 20.0773 9.16987 19.5743C8.96795 19.0713 8.91512 18.5178 9.01806 17.9838C9.12099 17.4498 9.37507 16.9593 9.74817 16.5743C10.1213 16.1894 10.5966 15.9272 11.1141 15.821C11.6316 15.7147 12.168 15.7693 12.6555 15.9776C13.1429 16.186 13.5596 16.5388 13.8527 16.9915C14.1459 17.4442 14.3023 17.9764 14.3023 18.5209C14.3023 19.251 14.0213 19.9512 13.5209 20.4674C13.0206 20.9837 12.3421 21.2737 11.6346 21.2737Z" fill="#4EB58D"/>
</svg>
